<?xml version="1.0" encoding="UTF-8"?><svg xmlns="http://www.w3.org/2000/svg" xmlns:xlink="http://www.w3.org/1999/xlink" width="375pt" zoomAndPan="magnify" viewBox="0 0 375 374.999991" height="374.999991pt" preserveAspectRatio="xMidYMid meet" version="1.2"><defs><g/></defs><g xml:id="surface1" id="surface1"><path style=" stroke:none;fill-rule:nonzero;fill:rgb(100%,100%,100%);fill-opacity:1;" d="M 187.5 375 C 84.144531 375 0 290.855469 0 187.5 C 0 84.144531 84.144531 0 187.5 0 C 290.855469 0 375 84.144531 375 187.5 C 375 290.855469 290.855469 375 187.5 375 Z M 187.5 2.769531 C 85.621094 2.769531 2.769531 85.621094 2.769531 187.5 C 2.769531 289.378906 85.621094 372.230469 187.5 372.230469 C 289.378906 372.230469 372.230469 289.378906 372.230469 187.5 C 372.230469 85.621094 289.378906 2.769531 187.5 2.769531 Z M 187.5 2.769531 "/><path style="fill:none;stroke-width:1;stroke-linecap:round;stroke-linejoin:miter;stroke:rgb(100%,100%,100%);stroke-opacity:1;stroke-miterlimit:4;" d="M 0.499699 0.000517523 L 60.651099 0.000517523 " transform="matrix(0.000000000000000184,3.004983,-3.147541,0.000000000000000193,187.70866,104.002318)"/><g style="fill:rgb(100%,100%,100%);fill-opacity:1;"><g transform="translate(229.862952, 220.22182)"><path style="stroke:none;" d="M 4.03125 -4.609375 L 12.90625 -4.609375 C 18.582031 -17.960938 24.242188 -31.242188 29.890625 -44.453125 C 35.535156 -57.660156 41.160156 -70.945312 46.765625 -84.3125 C 52.367188 -70.945312 57.988281 -57.660156 63.625 -44.453125 C 69.269531 -31.242188 74.894531 -17.960938 80.5 -4.609375 L 89.484375 -4.609375 L 89.484375 0 L 67.265625 0 L 67.265625 -4.609375 L 75.671875 -4.609375 C 73.515625 -9.597656 71.398438 -14.566406 69.328125 -19.515625 C 67.253906 -24.472656 65.144531 -29.484375 63 -34.546875 L 30.515625 -34.546875 C 28.367188 -29.484375 26.257812 -24.472656 24.1875 -19.515625 C 22.113281 -14.566406 20.003906 -9.597656 17.859375 -4.609375 L 26.265625 -4.609375 L 26.265625 0 L 4.03125 0 Z M 47.796875 -70.375 L 46.765625 -73.59375 C 46.609375 -73.363281 46.414062 -72.789062 46.1875 -71.875 C 46.03125 -71.40625 45.835938 -70.90625 45.609375 -70.375 C 44.835938 -68.375 43.929688 -66.125 42.890625 -63.625 C 41.859375 -61.132812 40.765625 -58.523438 39.609375 -55.796875 C 38.460938 -53.078125 37.296875 -50.296875 36.109375 -47.453125 C 34.921875 -44.609375 33.75 -41.84375 32.59375 -39.15625 L 60.921875 -39.15625 Z M 47.796875 -70.375 "/></g></g><g style="fill:rgb(100%,100%,100%);fill-opacity:1;"><g transform="translate(55.230349, 228.484168)"><path style="stroke:none;" d="M 4.03125 -80.625 L 27.1875 -80.625 L 27.1875 -76.015625 L 17.734375 -76.015625 L 17.734375 -26.375 C 17.734375 -22.6875 18.289062 -19.441406 19.40625 -16.640625 C 20.519531 -13.835938 22.054688 -11.476562 24.015625 -9.5625 C 25.972656 -7.644531 28.3125 -6.1875 31.03125 -5.1875 C 33.757812 -4.1875 36.773438 -3.6875 40.078125 -3.6875 C 43.304688 -3.6875 46.28125 -4.1875 49 -5.1875 C 51.726562 -6.1875 54.085938 -7.644531 56.078125 -9.5625 C 58.078125 -11.476562 59.632812 -13.835938 60.75 -16.640625 C 61.863281 -19.441406 62.421875 -22.6875 62.421875 -26.375 L 62.421875 -76.015625 L 52.984375 -76.015625 L 52.984375 -80.625 L 76.125 -80.625 L 76.125 -76.015625 L 67.265625 -76.015625 L 67.265625 -26.03125 C 67.265625 -21.65625 66.570312 -17.773438 65.1875 -14.390625 C 63.800781 -11.015625 61.878906 -8.191406 59.421875 -5.921875 C 56.972656 -3.660156 54.097656 -1.953125 50.796875 -0.796875 C 47.492188 0.347656 43.921875 0.921875 40.078125 0.921875 C 36.160156 0.921875 32.550781 0.347656 29.25 -0.796875 C 25.945312 -1.953125 23.085938 -3.660156 20.671875 -5.921875 C 18.253906 -8.191406 16.351562 -11.015625 14.96875 -14.390625 C 13.59375 -17.773438 12.90625 -21.65625 12.90625 -26.03125 L 12.90625 -76.015625 L 4.03125 -76.015625 Z M 4.03125 -80.625 "/></g></g></g></svg>